<svg xmlns="http://www.w3.org/2000/svg" width="41" height="41" viewBox="0 0 41 41">
  <g id="Raggruppa_21" data-name="Raggruppa 21">
    
    <g id="Componente_2_62" data-name="Componente 2 – 62" >
      <g id="Raggruppa_17" data-name="Raggruppa 17">
        <path id="Tracciato_14" data-name="Tracciato 14" d="M421.076,202.277c.03,2.133-1.741,2.383-1.669,3.971s1.379,2.816.145,3.755-9.5,4.4-8.925,5.56,3.7-.072,4.861-1.733,5.514-3.827,5.95-2.744-.218,1.516-1.886,2.455-1.233,2.888-.508,2.888a2.939,2.939,0,0,0,2.83-2.383,2.228,2.228,0,0,1,3.193-1.733c1.088.505,2.249,1.516,2.177,2.672s1.524.144,1.379,1.228-.871,2.961.218,3.033.58-1.805.8-2.744,1.306-3.105,2.539-2.744,1.016,1.155,1.741.65,1.379-.939,2.177-.578,1.306-.65,1.088-1.516-.508-2.888,1.233-3.1,4.426.65,5.369,1.805,2.539,2.166,2.685.65-3.773-1.95-5.224-2.961-1.6-3.466,1.016-4.26,6.82-.578,8.054-1.805-1.886-1.444-3.41-.505-5.768,2.058-7,1.264-.145-1.877-.363-2.816-1.379-.939-1.524-2.166,2.757-4.838,3.846-5.488,0-2.311-.871-1.083-2.249,4.26-4.136,4.838-1.741-.722-2.83-.505-2.577.777-3.429-.009-3.174-1.652-4.117-.5a1.893,1.893,0,0,1-2.612.65c-1.016-.361-2.249-.794-2.032.144s.145,4.26-1.161,3.755a15.732,15.732,0,0,1-4.644-3.538c-.58-.867-2.83-.65-2.394.217S421.04,199.713,421.076,202.277Z" transform="translate(-410.598 -190.982)" fill="#d9391e"/>
        <path id="Tracciato_15" data-name="Tracciato 15" d="M1.109,2.715C.243,3.292-.589.107.567.007,2.347-.148,1.573,2.405,1.109,2.715Z" transform="translate(8.016 0.711) rotate(-25)" fill="#d9391e"/>
        <path id="Tracciato_16" data-name="Tracciato 16" d="M674.674,175.717c-.645-.968.929-1.78,1.393-1.393s.678,1.378-.164,1.618S674.829,175.95,674.674,175.717Z" transform="translate(-654.999 -173.806)" fill="#d9391e"/>
        <path id="Tracciato_17" data-name="Tracciato 17" d="M781.371,558.043c.273,1.093.31,5.262,1.548,4.952s1.548-2.089.7-3.4S781.217,557.424,781.371,558.043Z" transform="translate(-754.726 -533.012)" fill="#d9391e"/>
        <ellipse id="Ellisse_19" data-name="Ellisse 19" cx="1.161" cy="0.696" rx="1.161" ry="0.696" transform="translate(0.573 14.831)" fill="#d9391e"/>
        <circle id="Ellisse_20" data-name="Ellisse 20" cx="0.735" cy="0.735" r="0.735" transform="translate(31.444 22.857)" fill="#d9391e"/>
      </g>
    </g>
  </g>
</svg>
